<svg width="29" height="31" viewBox="0 0 29 31" fill="none" xmlns="http://www.w3.org/2000/svg">
<path d="M24.6711 29.3077H4.12889C3.11412 29.3077 2.23088 28.6139 1.99057 27.628C0.977104 23.4702 4.126 19.4615 8.40554 19.4615H20.3945C24.674 19.4615 27.8229 23.4702 26.8094 27.628C26.5691 28.6139 25.6859 29.3077 24.6711 29.3077Z" stroke="#8CE249" stroke-width="3"/>
<path d="M11.9269 2.37362L11.1797 2.66465C9.64558 3.26225 8.47703 4.53995 8.01844 6.12124C7.74489 7.06451 7.74059 8.07008 8.00353 9.01636C8.46761 10.6866 9.71586 12.0364 11.3474 12.6221L12.3228 12.9723C13.672 13.4566 15.1409 13.4958 16.5141 13.0842L17.3187 12.8429C18.9604 12.3508 20.2482 11.0718 20.7516 9.43359C21.0442 8.48137 21.0534 7.46459 20.7782 6.50722L20.727 6.32908C20.2344 4.61583 18.9759 3.22744 17.3191 2.56949L16.8668 2.38986C15.2814 1.76027 13.5164 1.75446 11.9269 2.37362Z" stroke="#8CE249" stroke-width="3"/>
</svg>
