<svg width="36" height="27" viewBox="0 0 36 27" fill="none" xmlns="http://www.w3.org/2000/svg">
<path fill-rule="evenodd" clip-rule="evenodd" d="M30.7278 1.32084C31.1308 1.17298 31.5719 1.12198 32.0051 1.17316C32.4384 1.22433 32.848 1.37582 33.1914 1.61184C33.5347 1.84787 33.7992 2.1598 33.9573 2.51518C34.1154 2.87055 34.1614 3.25638 34.0904 3.6325L30.3919 23.1906C30.0331 25.0772 27.6587 26.1591 25.6741 25.2193C24.014 24.4331 21.5483 23.2219 19.3305 21.958C18.2215 21.3253 14.8247 19.2994 15.2422 17.8579C15.6009 16.6253 21.3086 11.9934 24.5701 9.23962C25.8502 8.15772 25.2664 7.5336 23.7547 8.52878C19.9991 10.9997 13.9734 14.7572 11.9806 15.8149C10.2227 16.7475 9.30621 16.9068 8.21034 16.7475C6.21104 16.4575 4.35687 16.0083 2.84353 15.4609C0.798564 14.7216 0.898039 12.2706 2.8419 11.557L30.7278 1.32084Z" fill="white" fill-opacity="0.08" stroke="white" stroke-width="2"/>
</svg>
