<svg width="29" height="32" viewBox="0 0 29 32" fill="none" xmlns="http://www.w3.org/2000/svg">
<path d="M9.00078 9.38461H3.80078C2.69621 9.38461 1.80078 10.28 1.80078 11.3846V26.3077C1.80078 28.5168 3.59164 30.3077 5.80078 30.3077H23.4008C25.6099 30.3077 27.4008 28.5168 27.4008 26.3077V11.3846C27.4008 10.28 26.5054 9.38461 25.4008 9.38461H20.2008M9.00078 9.38461V14.9641M9.00078 9.38461H20.2008M9.00078 9.38461V7.29231V6.84515C9.00078 5.78372 9.38146 4.7575 10.0737 3.95285V3.95285C10.9162 2.97354 12.1438 2.41026 13.4357 2.41026H15.7659C17.0577 2.41026 18.2854 2.97354 19.1279 3.95285V3.95285C19.8201 4.7575 20.2008 5.78372 20.2008 6.84515V7.29231V9.38461M20.2008 9.38461V14.9641" stroke="#8CE249" stroke-width="3" stroke-linecap="round"/>
</svg>
