<svg width="226" height="26" viewBox="0 0 226 26" fill="none" xmlns="http://www.w3.org/2000/svg">
<path d="M11.224 25.3454C9.048 25.3454 7.12267 24.9508 5.448 24.1614C3.784 23.3614 2.488 22.2414 1.56 20.8014C0.642667 19.3614 0.184 17.7081 0.184 15.8414C0.184 13.9748 0.642667 12.3214 1.56 10.8814C2.488 9.44144 3.784 8.32677 5.448 7.53744C7.12267 6.73744 9.048 6.33744 11.224 6.33744C13.4 6.33744 15.32 6.73744 16.984 7.53744C18.6587 8.32677 19.9547 9.44144 20.872 10.8814C21.8 12.3214 22.264 13.9748 22.264 15.8414C22.264 17.7081 21.8 19.3614 20.872 20.8014C19.9547 22.2414 18.6587 23.3614 16.984 24.1614C15.32 24.9508 13.4 25.3454 11.224 25.3454ZM11.224 22.0814C12.6107 22.0814 13.816 21.8308 14.84 21.3294C15.864 20.8174 16.6533 20.0921 17.208 19.1534C17.7627 18.2148 18.04 17.1108 18.04 15.8414C18.04 14.5828 17.7627 13.4841 17.208 12.5454C16.6533 11.6068 15.864 10.8814 14.84 10.3694C13.816 9.85744 12.6107 9.60144 11.224 9.60144C9.83733 9.60144 8.632 9.85744 7.608 10.3694C6.584 10.8814 5.79467 11.6068 5.24 12.5454C4.68533 13.4841 4.408 14.5828 4.408 15.8414C4.408 17.1108 4.68533 18.2148 5.24 19.1534C5.79467 20.0921 6.584 20.8174 7.608 21.3294C8.632 21.8308 9.83733 22.0814 11.224 22.0814ZM32.3335 25.3454C30.2322 25.3454 28.3495 24.9454 26.6855 24.1454C25.0322 23.3454 23.7415 22.2254 22.8135 20.7854C21.8855 19.3348 21.4215 17.6761 21.4215 15.8094C21.4215 13.9534 21.8642 12.3108 22.7495 10.8814C23.6348 9.44144 24.8668 8.32677 26.4455 7.53744C28.0242 6.73744 29.8162 6.33744 31.8215 6.33744C33.8162 6.33744 35.5602 6.79077 37.0535 7.69744C38.5575 8.6041 39.7148 9.88944 40.5255 11.5534C41.3362 13.2068 41.7415 15.1268 41.7415 17.3134H24.6855V14.1454H39.6615L37.5815 15.3294C37.5068 14.1454 37.2188 13.1268 36.7175 12.2734C36.2268 11.4094 35.5548 10.7481 34.7015 10.2894C33.8482 9.83077 32.8562 9.60144 31.7255 9.60144C30.5202 9.60144 29.4588 9.84677 28.5415 10.3374C27.6242 10.8281 26.9095 11.5214 26.3975 12.4174C25.8962 13.3134 25.6455 14.3588 25.6455 15.5534C25.6455 16.8974 25.9442 18.0601 26.5415 19.0414C27.1495 20.0228 28.0135 20.7748 29.1335 21.2974C30.2642 21.8201 31.5975 22.0814 33.1335 22.0814C34.5308 22.0814 35.9495 21.8628 37.3895 21.4254C38.8402 20.9774 40.1202 20.3641 41.2295 19.5854V22.5934C40.1095 23.4468 38.7548 24.1188 37.1655 24.6094C35.5868 25.1001 33.9762 25.3454 32.3335 25.3454ZM162.588 0.897436H166.716L165.948 9.53744H163.356L162.588 0.897436Z" fill="#8CE249"/>
<path d="M52.7483 25.3454C51.0949 25.3454 49.6816 25.0094 48.5082 24.3374C47.3349 23.6548 46.4389 22.6734 45.8202 21.3934C45.2122 20.1134 44.9082 18.5828 44.9082 16.8014V6.78544H49.0682V16.1614C49.0682 18.0281 49.4949 19.4521 50.3482 20.4334C51.2122 21.4041 52.4602 21.8894 54.0922 21.8894C55.2442 21.8894 56.2469 21.6334 57.1003 21.1214C57.9642 20.5988 58.6256 19.8681 59.0842 18.9294C59.5536 17.9801 59.7882 16.8761 59.7882 15.6174L61.2283 16.4174C61.0576 18.2521 60.5882 19.8414 59.8202 21.1854C59.0522 22.5294 58.0549 23.5588 56.8282 24.2734C55.6122 24.9881 54.2522 25.3454 52.7483 25.3454ZM60.8442 24.8974L59.7882 18.3694V6.78544H63.9482V19.0094L65.0042 24.8974H60.8442ZM78.5888 23.0414H76.9888L84.4128 6.78544H88.8608L80.0288 24.8974H75.3568L66.5248 6.78544H71.1008L78.5888 23.0414ZM90.4565 6.78544H94.6165L95.7045 13.3774V24.8974H91.5445V12.5774L90.4565 6.78544ZM104.889 10.3054C104.419 10.1774 103.907 10.0814 103.353 10.0174C102.809 9.95344 102.286 9.92144 101.785 9.92144C100.601 9.92144 99.5498 10.1828 98.6325 10.7054C97.7152 11.2281 96.9952 12.0014 96.4725 13.0254C95.9605 14.0388 95.7045 15.2654 95.7045 16.7054L94.7445 15.5214C94.8512 13.7614 95.2085 12.1881 95.8165 10.8014C96.4245 9.41477 97.2832 8.32677 98.3925 7.53744C99.5018 6.73744 100.835 6.33744 102.393 6.33744C102.819 6.33744 103.257 6.36944 103.705 6.43344C104.153 6.48677 104.547 6.56144 104.889 6.65744V10.3054ZM116.677 25.3454C114.576 25.3454 112.693 24.9454 111.029 24.1454C109.376 23.3454 108.085 22.2254 107.157 20.7854C106.229 19.3348 105.765 17.6761 105.765 15.8094C105.765 13.9534 106.208 12.3108 107.093 10.8814C107.979 9.44144 109.211 8.32677 110.789 7.53744C112.368 6.73744 114.16 6.33744 116.165 6.33744C118.16 6.33744 119.904 6.79077 121.397 7.69744C122.901 8.6041 124.059 9.88944 124.869 11.5534C125.68 13.2068 126.085 15.1268 126.085 17.3134H109.029V14.1454H124.005L121.925 15.3294C121.851 14.1454 121.563 13.1268 121.061 12.2734C120.571 11.4094 119.899 10.7481 119.045 10.2894C118.192 9.83077 117.2 9.60144 116.069 9.60144C114.864 9.60144 113.803 9.84677 112.885 10.3374C111.968 10.8281 111.253 11.5214 110.741 12.4174C110.24 13.3134 109.989 14.3588 109.989 15.5534C109.989 16.8974 110.288 18.0601 110.885 19.0414C111.493 20.0228 112.357 20.7748 113.477 21.2974C114.608 21.8201 115.941 22.0814 117.477 22.0814C118.875 22.0814 120.293 21.8628 121.733 21.4254C123.184 20.9774 124.464 20.3641 125.573 19.5854V22.5934C124.453 23.4468 123.099 24.1188 121.509 24.6094C119.931 25.1001 118.32 25.3454 116.677 25.3454ZM154.937 24.8974L154.233 18.0174L155.161 15.8734L154.265 13.4094L155.609 0.257437H159.897L158.265 15.5854L159.193 24.8974H154.937ZM156.153 15.8414C155.747 17.7401 155.07 19.4041 154.121 20.8334C153.171 22.2628 152.009 23.3721 150.633 24.1614C149.257 24.9508 147.737 25.3454 146.073 25.3454C144.323 25.3454 142.761 24.9508 141.385 24.1614C140.009 23.3614 138.937 22.2414 138.169 20.8014C137.401 19.3614 137.017 17.7081 137.017 15.8414C137.017 13.9748 137.401 12.3214 138.169 10.8814C138.937 9.44144 140.009 8.32677 141.385 7.53744C142.761 6.73744 144.323 6.33744 146.073 6.33744C147.737 6.33744 149.257 6.7321 150.633 7.52144C152.019 8.3001 153.187 9.40944 154.137 10.8494C155.086 12.2788 155.758 13.9428 156.153 15.8414ZM141.241 15.8414C141.241 17.0361 141.486 18.1028 141.977 19.0414C142.478 19.9801 143.171 20.7108 144.057 21.2334C144.942 21.7561 145.945 22.0174 147.065 22.0174C148.185 22.0174 149.235 21.7614 150.217 21.2494C151.209 20.7268 152.083 20.0014 152.841 19.0734C153.609 18.1454 154.222 17.0681 154.681 15.8414C154.222 14.6254 153.609 13.5534 152.841 12.6254C152.083 11.6974 151.209 10.9721 150.217 10.4494C149.235 9.92677 148.185 9.66544 147.065 9.66544C145.945 9.66544 144.942 9.9321 144.057 10.4654C143.171 10.9881 142.478 11.7188 141.977 12.6574C141.486 13.5854 141.241 14.6468 141.241 15.8414ZM186.248 24.8974L185.544 18.1774L186.376 15.8414L185.544 13.5374L186.248 6.78544H190.536L189.576 15.8414L190.536 24.8974H186.248ZM187.528 15.8414C187.122 17.7401 186.445 19.4041 185.496 20.8334C184.546 22.2628 183.384 23.3721 182.008 24.1614C180.632 24.9508 179.112 25.3454 177.448 25.3454C175.698 25.3454 174.136 24.9508 172.76 24.1614C171.384 23.3614 170.312 22.2414 169.544 20.8014C168.776 19.3614 168.392 17.7081 168.392 15.8414C168.392 13.9748 168.776 12.3214 169.544 10.8814C170.312 9.44144 171.384 8.32677 172.76 7.53744C174.136 6.73744 175.698 6.33744 177.448 6.33744C179.112 6.33744 180.632 6.7321 182.008 7.52144C183.394 8.3001 184.562 9.40944 185.512 10.8494C186.461 12.2788 187.133 13.9428 187.528 15.8414ZM172.616 15.8414C172.616 17.0361 172.861 18.1028 173.352 19.0414C173.853 19.9801 174.546 20.7108 175.432 21.2334C176.317 21.7561 177.32 22.0174 178.44 22.0174C179.56 22.0174 180.61 21.7614 181.592 21.2494C182.584 20.7268 183.458 20.0014 184.216 19.0734C184.984 18.1454 185.597 17.0681 186.056 15.8414C185.597 14.6254 184.984 13.5534 184.216 12.6254C183.458 11.6974 182.584 10.9721 181.592 10.4494C180.61 9.92677 179.56 9.66544 178.44 9.66544C177.32 9.66544 176.317 9.9321 175.432 10.4654C174.546 10.9881 173.853 11.7188 173.352 12.6574C172.861 13.5854 172.616 14.6468 172.616 15.8414ZM193.675 6.78544H197.835L198.923 13.3774V24.8974H194.763V12.5774L193.675 6.78544ZM208.107 10.3054C207.638 10.1774 207.126 10.0814 206.571 10.0174C206.027 9.95344 205.505 9.92144 205.003 9.92144C203.819 9.92144 202.769 10.1828 201.851 10.7054C200.934 11.2281 200.214 12.0014 199.691 13.0254C199.179 14.0388 198.923 15.2654 198.923 16.7054L197.963 15.5214C198.07 13.7614 198.427 12.1881 199.035 10.8014C199.643 9.41477 200.502 8.32677 201.611 7.53744C202.721 6.73744 204.054 6.33744 205.611 6.33744C206.038 6.33744 206.475 6.36944 206.923 6.43344C207.371 6.48677 207.766 6.56144 208.107 6.65744V10.3054ZM208.866 9.98544V8.09744L212.738 7.10544L214.466 2.04944H216.898V6.78544H225.314V9.98544H216.898V17.8254C216.898 18.8388 217.037 19.6441 217.314 20.2414C217.602 20.8388 218.045 21.2708 218.642 21.5374C219.25 21.7934 220.056 21.9214 221.058 21.9214C221.976 21.9214 222.797 21.8254 223.522 21.6334C224.248 21.4308 224.952 21.1321 225.634 20.7374V24.1614C225.016 24.4814 224.2 24.7588 223.186 24.9934C222.173 25.2281 221.165 25.3454 220.162 25.3454C217.613 25.3454 215.736 24.7374 214.53 23.5214C213.336 22.2948 212.738 20.6094 212.738 18.4654V9.98544H208.866Z" fill="#FF9D42"/>
</svg>
